<svg data-v-0d324988="" xmlns="http://www.w3.org/2000/svg" style="width:100%;height:100%" viewBox="0 0 134 57" class=""><g data-v-0d324988="" fill="none" fill-rule="evenodd"><path data-v-0d324988="" fill="#F7F9FA" d="M65.548 39.395c2.434 0 4.1 1.733 4.1 4.044 0 .88-.36 2.286-.744 3.668-.359 1.231-.59 2.42-.71 2.883-.188.727-.316 1.991-1.032 1.991-1.026 0-.93-.5-.685-1.72a53.49 53.49 0 01.812-3.38c.36-1.256.642-2.461.642-3.14 0-1.734-1.077-2.813-2.614-2.813-1.793 0-2.895.804-4.099 2.636l-1.648 7.638c-.128.603-.486.78-.92.78h-.18c-.437 0-.692-.152-.564-.78l1.392-6.43c.487-2.262-.564-3.844-2.433-3.844-1.768 0-2.895.778-4.098 2.636l-1.643 7.638c-.126.628-.486.78-.92.78h-.18c-.437 0-.692-.177-.563-.78l2.513-11.5s.057-.307.41-.307c.64 0 1.15.502.867 1.934l-.024.075c.973-1.33 2.434-2.01 3.867-2.01 1.923 0 3.306 1.031 3.793 2.613.973-1.507 2.508-2.612 4.661-2.612zm25.868 0c.948 0 1.764.455 1.8 1.157.016.375-.1.593-.273.745-.198.174-.507.207-.671.084-.323-.24-.745-.428-1.343-.428-1.971 0-3.304 2.461-4.022 5.827l-.942 4.422c-.126.578-.359.78-.768.78h-.205c-.435 0-.819-.177-.69-.78l2.466-11.381s.07-.446.438-.446c.64 0 1.162.522.88 1.954l-.103.477c.847-1.582 1.922-2.411 3.433-2.411zm5.042 0c.436 0 .82.176.691.779l-1.995 9.068c-.233 1.071-.415 2.74-1.153 2.74-.11 0-.383-.009-.465-.027-.787-.161-.396-1.095-.05-2.688l2-9.093c.127-.578.357-.78.767-.78h.205zm.55-3.625c.743 0 1.128.302 1.128.83 0 .652-.385 1.281-1.178 1.281-.744 0-1.126-.302-1.126-.83 0-.653.382-1.28 1.177-1.28zm8.496 3.65c2.024 0 3.38.678 4.225 1.507.718.703 1.025 1.482 1.025 2.06 0 .549-.311.87-.641.93-.615.115-.663-.34-.715-.5-.485-1.497-1.81-2.54-3.843-2.54-3.126 0-5.252 2.713-5.252 5.426 0 2.462 1.666 4.17 4.228 4.17 1.72 0 2.892-.787 3.726-1.91.085-.114.363-.432.784-.219a.72.72 0 01.408.648c0 .351-.257.828-.794 1.355-.847.83-2.409 1.609-4.278 1.609-3.203 0-5.79-2.06-5.79-5.552 0-3.643 3.023-6.984 6.917-6.984zm-57.179-7.039c-2.799 0-3.367-1.65-2.922-3.738l2.477-11.411c.346-1.675 1.387-2.234 2.673-2.234 1.285 0 2.452.51 2.08 2.234l-2.525 11.58c-.266 1.177-.144 1.764.403 2.084.233.14.366.445.058.755-.35.352-1.02.73-2.244.73zm23.937.025c-3.726 0-6.193-2.009-6.193-5.494 0-3.847 3.084-7.113 7.056-7.113 2.122 0 3.554.605 4.442 1.475.592.582.862 1.26.862 1.864 0 1.14-.503 1.652-1.143 1.906-.697.278-1.69.075-2.022-.518-.364-.649-1.012-1.097-2.039-1.097-1.728 0-2.888 1.5-2.888 3.097 0 1.282.839 2.25 2.345 2.25a2.62 2.62 0 001.994-.878c.367-.4.905-.482 1.406-.286.577.227 1.041.788 1.041 1.648 0 .605-.296 1.21-.864 1.766-.84.799-2.22 1.38-3.997 1.38zm15.496-2.72c0 .705-.27 1.263-.766 1.748-.645.655-1.684.996-3.021.996-3.145 0-4.432-1.773-3.813-4.71l.944-4.4h-.273c-1.04 0-1.742-.352-1.658-1.237.036-.387.174-1.336.644-1.82.32-.292.667-.462 1.633-.462h.42l.076-.364c.444-2.112 1.791-3.086 3.26-3.086 2.053 0 1.82 1.095 1.747 1.439-.074.342-.428 2.011-.428 2.011h1.386c1.14 0 1.733.51 1.733 1.263 0 .387-.173 1.335-.643 1.796-.323.291-.669.46-1.633.46h-1.684l-.894 4.182c-.223 1.02.173 1.48.89 1.48.353 0 .712-.104 1.006-.275.336-.196.744-.133.927.27.086.19.147.429.147.71zm3.506 2.688c-1.535 0-2.45-.534-2.079-2.258 0 0 1.984-9.092 2.096-9.545.152-.62 1.097-.783 1.495-.783 1.213 0 2.378.606 2.55 2.283.693-1.482 1.693-2.772 3.425-2.772 1.308 0 2.344.78 2.401 2.064.06 1.397-.68 2.215-1.305 2.61-.386.245-.77.344-1.079.076a2.35 2.35 0 00-1.527-.572c-1.338 0-2.229 1.743-2.675 3.733l-.628 2.906c-.347 1.7-1.022 2.258-2.674 2.258zm14.838-13.685c-1.561 0-2.496-1.207-2.421-2.248.09-1.266 1.058-2.147 2.568-2.147 1.56 0 2.483.927 2.48 2.052-.001 1.434-1.218 2.343-2.627 2.343zm-2.03 13.765c-2.798 0-3.368-1.65-2.923-3.738l1.414-6.532c.345-1.675 1.412-2.396 2.726-2.396 1.317 0 2.452.51 2.08 2.233l-1.515 6.864c-.265 1.178-.144 1.763.403 2.085.235.138.368.443.059.753-.351.353-1.021.73-2.245.73zm10.04-2.331c-.372 1.7-.937 2.258-2.203 2.258-1.014 0-3.044.111-2.55-2.258a687.437 687.437 0 011.499-6.815h-.445c-1.063 0-1.684-.51-1.684-1.237 0-.39.12-1.443.468-1.814.364-.386.87-.468 1.811-.468h.595l.018-.153c.792-3.716 2.897-4.76 5.323-4.76 1.361 0 2.302.34 2.871.875.347.339.521.776.521 1.238 0 .507-.124 1.022-.402 1.336-.068.076-.524.518-1.183.26-.324-.125-.69-.262-1.114-.262-.742 0-1.238.317-1.46 1.288l-.02.178h1.138c1.115 0 1.734.51 1.734 1.26 0 .39-.198 1.337-.668 1.798-.298.292-.669.461-1.61.461h-1.138l-1.5 6.815zm17.47-10.335c1.048-.03 2.434.885 2.227 2.324-.1.697-.315 1.189-.959 2.16l-5.793 8.91c-1.486 2.282-2.872 3.788-5.2 3.788-1.213 0-2.052-.347-2.648-.825-.49-.395-1.074-1.385-.54-2.466.403-.814 1.136-.273 1.975-.254.84.02 1.61-.387 2.674-1.918l-1.534-7.235c-.154-1.213-.516-1.584-.873-2.049-.144-.187-.82-.876-.247-1.596.396-.5 1.062-.822 2.259-.822 1.321 0 2.245.444 2.702 1.974.173.579.664 5.261.664 5.261s3.547-6.074 3.717-6.363c.279-.48.72-.864 1.576-.889zm-83.177 19.7c.134.073.17.177.127.395-.044.218-2.06 9.377-2.06 9.377-.37 1.564-.283 2.739-1.188 2.739-.812 0-.963-.183-.5-2.588-1.152 1.732-2.894 2.563-4.712 2.563-2.64 0-4.893-1.76-4.893-5.075 0-3.692 2.911-7.505 6.934-7.505 2.048 0 3.637 1.057 4.328 2.513l.129-.628c.35-1.734.691-1.885 1.384-1.885a1 1 0 01.451.094zm-2.835 6.438l.436-1.985c-.565-1.908-1.87-3.114-3.997-3.114-3.2 0-5.14 3.182-5.14 6.047 0 2.336 1.564 3.666 3.408 3.666 2.56 0 4.782-2.152 5.293-4.614zm30.94.453a30.7 30.7 0 01-3.203-.177 7.994 7.994 0 00-.05.78c0 2.11 1.254 3.566 3.662 3.566 1.704 0 2.86-.557 3.814-1.607.233-.255.622-.408.928-.166.16.127.255.327.255.568 0 .376-.129.628-.565 1.055-1.077 1.055-2.484 1.557-4.483 1.557-3.457 0-5.301-2.06-5.301-4.874 0-4.32 3.328-7.686 7.685-7.686 2.74 0 4.354 1.28 4.354 3.165 0 2.387-1.615 3.819-7.096 3.819zm2.664-5.552c-2.562 0-4.688 1.733-5.532 3.993 1.024.127 1.946.177 2.715.177 4.405 0 5.559-1.156 5.559-2.412 0-.879-.898-1.758-2.742-1.758zm45.92-1.339c.134.073.171.177.126.395-.044.218-2.06 9.377-2.06 9.377-.368 1.564-.281 2.739-1.188 2.739-.81 0-.963-.183-.498-2.588-1.152 1.732-2.895 2.563-4.713 2.563-2.638 0-4.893-1.76-4.893-5.075 0-3.692 2.912-7.505 6.934-7.505 2.049 0 3.638 1.057 4.327 2.513l.13-.628c.35-1.734.692-1.885 1.385-1.885.168 0 .338.033.45.094zm-2.834 6.438l.436-1.985c-.565-1.908-1.871-3.114-3.997-3.114-3.2 0-5.14 3.182-5.14 6.047 0 2.336 1.562 3.666 3.406 3.666 2.561 0 4.782-2.152 5.295-4.614zM44.638 23.52c0 2.5-1.609 3.981-7.03 3.981-.621 0-1.264 0-1.982-.049.148 1.142 1.015 1.773 2.525 1.773a4.14 4.14 0 002.65-.952c.35-.289.817-.514 1.265-.51.75.003 1.476.623 1.476 1.51 0 .561-.245 1.281-1.489 2.106-.884.586-2.174 1.026-3.976 1.026-4.356 0-6.312-2.257-6.312-5.293 0-4.395 3.441-7.356 7.723-7.356 3.367 0 5.15 1.506 5.15 3.764zm-8.517 1.335c.396.025.768.025 1.09.025 2.747 0 3.59-.511 3.59-1.214 0-.511-.52-.972-1.535-.972-1.387 0-2.526.922-3.145 2.161zm29.011-1.335c0 2.5-1.61 3.981-7.032 3.981-.619 0-1.263 0-1.981-.049.15 1.142 1.015 1.773 2.527 1.773a4.15 4.15 0 002.65-.952c.35-.289.817-.514 1.263-.51.75.003 1.477.623 1.477 1.51 0 .561-.245 1.281-1.49 2.106-.882.586-2.173 1.026-3.976 1.026-4.356 0-6.312-2.257-6.312-5.293 0-4.395 3.441-7.356 7.725-7.356 3.366 0 5.15 1.506 5.15 3.764zm-8.516 1.335c.395.025.766.025 1.089.025 2.748 0 3.59-.511 3.59-1.214 0-.511-.52-.972-1.536-.972-1.387 0-2.524.922-3.143 2.161z"></path><path data-v-0d324988="" fill="#FFF" d="M8.46 23.878C9.727 21 12.355 18.81 15.595 18.81c2.322 0 3.505 1.117 3.505 2.233 0 1.632-1.665 2.963-7.663 2.963a38.14 38.14 0 01-2.979-.13zm15.85-3.006c0-.258-.05-.497-.079-.745l6.23-1.422-1.737 2.232-7.368 9.469a2.15 2.15 0 00-1.605-.72 2.16 2.16 0 00-1.52.618c-1.447 1.266-3.052 2.12-5.393 2.12-3.371 0-5.21-1.804-5.21-4.724v-.13c1.618.087 3.064.173 4.377.173 9.503 0 12.306-2.576 12.306-6.871zm-8.45-6.14c-4.818 0-8.992 2.265-11.361 5.912L9.732 3.821 26.592 0l-5.475 15.831c-1.356-.697-3.109-1.1-5.258-1.1zM2.415 27.828c0 2.496.8 4.671 2.43 6.248L0 35.099l2.446-7.856c-.008.196-.03.386-.03.586zm4.628 7.751c1.517.725 3.411 1.138 5.706 1.138 1.606 0 2.994-.247 4.195-.645L1.227 56.275 7.044 35.58z"></path></g></svg>